<svg version="1.1" xmlns="http://www.w3.org/2000/svg" xmlns:xlink="http://www.w3.org/1999/xlink" width="994.0380859375" height="425"><defs/><g><g transform="translate(-38,-78) scale(1,1)"><rect fill="#C0C0C0" stroke="none" x="55" y="135" width="154.89453125" height="24" opacity="0.2"/></g><g transform="translate(-38,-78) scale(1,1)"><rect fill="#ffffff" stroke="none" x="48" y="128" width="154.89453125" height="24"/></g><g transform="translate(-38,-78) scale(1,1)"><path fill="none" stroke="#000000" d="M 48 128 L 202.89453125 128 L 202.89453125 152 L 48 152 L 48 128 Z Z" stroke-miterlimit="10"/></g><g transform="translate(-38,-78) scale(1,1)"><rect fill="#ffffff" stroke="none" x="48" y="128" width="154.89453125" height="24"/></g><g transform="translate(-38,-78) scale(1,1)"><path fill="none" stroke="#000000" d="M 48 128 L 202.89453125 128 L 202.89453125 152 L 48 152 L 48 128 Z Z" stroke-miterlimit="10"/></g><g transform="translate(-38,-78) scale(1,1)"><g><path fill="none" stroke="none"/><text fill="#000000" stroke="none" font-family="Arial" font-size="13px" font-style="normal" font-weight="bold" text-decoration="none" x="97.62548828125" y="147.5">Automate</text></g></g><g transform="translate(-38,-78) scale(1,1)"><rect fill="#C0C0C0" stroke="none" x="263" y="135" width="180.1962890625" height="29" opacity="0.2"/></g><g transform="translate(-38,-78) scale(1,1)"><rect fill="#ffffff" stroke="none" x="256" y="128" width="180.1962890625" height="29"/></g><g transform="translate(-38,-78) scale(1,1)"><path fill="none" stroke="#000000" d="M 256 128 L 436.1962890625 128 L 436.1962890625 157 L 256 157 L 256 128 Z Z" stroke-miterlimit="10"/></g><g transform="translate(-38,-78) scale(1,1)"><rect fill="#ffffff" stroke="none" x="256" y="128" width="180.1962890625" height="29"/></g><g transform="translate(-38,-78) scale(1,1)"><path fill="none" stroke="#000000" d="M 256 128 L 436.1962890625 128 L 436.1962890625 157 L 256 157 L 256 128 Z Z" stroke-miterlimit="10"/></g><g transform="translate(-38,-78) scale(1,1)"><g><path fill="none" stroke="none"/><text fill="#000000" stroke="none" font-family="Arial" font-size="13px" font-style="normal" font-weight="bold" text-decoration="none" x="266.247802734375" y="147.5">Conteneur Docker par unité</text></g></g><g transform="translate(-38,-78) scale(1,1)"><rect fill="#C0C0C0" stroke="none" x="495" y="135" width="165.04443359375" height="29" opacity="0.2"/></g><g transform="translate(-38,-78) scale(1,1)"><rect fill="#ffffff" stroke="none" x="488" y="128" width="165.04443359375" height="29"/></g><g transform="translate(-38,-78) scale(1,1)"><path fill="none" stroke="#000000" d="M 488 128 L 653.04443359375 128 L 653.04443359375 157 L 488 157 L 488 128 Z Z" stroke-miterlimit="10"/></g><g transform="translate(-38,-78) scale(1,1)"><rect fill="#ffffff" stroke="none" x="488" y="128" width="165.04443359375" height="29"/></g><g transform="translate(-38,-78) scale(1,1)"><path fill="none" stroke="#000000" d="M 488 128 L 653.04443359375 128 L 653.04443359375 157 L 488 157 L 488 128 Z Z" stroke-miterlimit="10"/></g><g transform="translate(-38,-78) scale(1,1)"><g><path fill="none" stroke="none"/><text fill="#000000" stroke="none" font-family="Arial" font-size="13px" font-style="normal" font-weight="bold" text-decoration="none" x="496.08642578125" y="147.5">Base de donnée MariaDB</text></g></g><g transform="translate(-38,-78) scale(1,1)"><rect fill="#C0C0C0" stroke="none" x="743" y="127" width="99" height="29" opacity="0.2"/></g><g transform="translate(-38,-78) scale(1,1)"><rect fill="#ffffff" stroke="none" x="736" y="120" width="99" height="29"/></g><g transform="translate(-38,-78) scale(1,1)"><path fill="none" stroke="#000000" d="M 736 120 L 835 120 L 835 149 L 736 149 L 736 120 Z Z" stroke-miterlimit="10"/></g><g transform="translate(-38,-78) scale(1,1)"><rect fill="#ffffff" stroke="none" x="736" y="120" width="99" height="29"/></g><g transform="translate(-38,-78) scale(1,1)"><path fill="none" stroke="#000000" d="M 736 120 L 835 120 L 835 149 L 736 149 L 736 120 Z Z" stroke-miterlimit="10"/></g><g transform="translate(-38,-78) scale(1,1)"><g><path fill="none" stroke="none"/><text fill="#000000" stroke="none" font-family="Arial" font-size="13px" font-style="normal" font-weight="bold" text-decoration="none" x="745.3955078125" y="139.5">Serveur Node</text></g></g><g transform="translate(-38,-78) scale(1,1)"><path fill="none" stroke="#000000" d="M 204 141 L 255 141" stroke-miterlimit="10"/></g><g transform="translate(-38,-78) scale(1,1)"><path fill="none" stroke="#000000" d="M 249 131 L 209 131" stroke-miterlimit="10"/></g><g transform="translate(-38,-78) scale(1,1)"><path fill="#000000" stroke="none" d="M 237 135 L 249 131 L 237 126"/></g><g transform="translate(-38,-78) scale(1,1)"><g><path fill="none" stroke="none"/><text fill="#000000" stroke="none" font-family="Arial" font-size="13px" font-style="normal" font-weight="normal" text-decoration="none" x="179.227783203125" y="126.5">1 : Etat en JSON</text></g></g><g transform="translate(-38,-78) scale(1,1)"><path fill="none" stroke="#000000" d="M 437 142 L 487 142" stroke-miterlimit="10"/></g><g transform="translate(-38,-78) scale(1,1)"><path fill="none" stroke="#000000" d="M 482 132 L 442 132" stroke-miterlimit="10"/></g><g transform="translate(-38,-78) scale(1,1)"><path fill="#000000" stroke="none" d="M 470 136 L 482 132 L 470 127"/></g><g transform="translate(-38,-78) scale(1,1)"><g><path fill="none" stroke="none"/><text fill="#000000" stroke="none" font-family="Arial" font-size="13px" font-style="normal" font-weight="normal" text-decoration="none" x="391.27734375" y="127.5">2 : Fichier JSON agrégé</text></g></g><g transform="translate(-38,-78) scale(1,1)"><path fill="none" stroke="#000000" d="M 751 119 L 680 88 L 601 127" stroke-miterlimit="10"/></g><g transform="translate(-38,-78) scale(1,1)"><path fill="none" stroke="#000000" d="M 667 105 L 702 88" stroke-miterlimit="10"/></g><g transform="translate(-38,-78) scale(1,1)"><path fill="#000000" stroke="none" d="M 674 96 L 667 105 L 678 104"/></g><g transform="translate(-38,-78) scale(1,1)"><g><path fill="none" stroke="none"/><text fill="#000000" stroke="none" font-family="Arial" font-size="13px" font-style="normal" font-weight="normal" text-decoration="none" x="615.146484375" y="82">4 : Requête données</text></g></g><g transform="translate(-38,-78) scale(1,1)"><path fill="none" stroke="#000000" d="M 592 158 L 672 216 L 763 150" stroke-miterlimit="10"/></g><g transform="translate(-38,-78) scale(1,1)"><path fill="none" stroke="#000000" d="M 683 199 L 651 222" stroke-miterlimit="10"/></g><g transform="translate(-38,-78) scale(1,1)"><path fill="#000000" stroke="none" d="M 676 209 L 683 199 L 671 201"/></g><g transform="translate(-38,-78) scale(1,1)"><g><path fill="none" stroke="none"/><text fill="#000000" stroke="none" font-family="Arial" font-size="13px" font-style="normal" font-weight="normal" text-decoration="none" x="609.346923828125" y="236">5 : Envoie données</text></g></g><g transform="translate(-38,-78) scale(1,1)"><path fill="#ffffff" stroke="none" d="M 168 200 L 341 200 L 351 210 L 351 255 L 168 255 L 168 200"/></g><g transform="translate(-38,-78) scale(1,1)"><path fill="none" stroke="#000000" d="M 168 200 L 341 200 L 351 210 L 351 255 L 168 255 L 168 200 L 168 200" stroke-miterlimit="10"/></g><g transform="translate(-38,-78) scale(1,1)"><path fill="none" stroke="#000000" d="M 341 200 L 341 210 L 351 210 L 341 200" stroke-miterlimit="10"/></g><g transform="translate(-38,-78) scale(1,1)"><g><path fill="none" stroke="none"/><text fill="#000000" stroke="none" font-family="Arial" font-size="13px" font-style="normal" font-weight="normal" text-decoration="none" x="173" y="218">Un script python qui tourne 10</text><text fill="#000000" stroke="none" font-family="Arial" font-size="13px" font-style="normal" font-weight="normal" text-decoration="none" x="173" y="231">fois (une fois pour chaque</text><text fill="#000000" stroke="none" font-family="Arial" font-size="13px" font-style="normal" font-weight="normal" text-decoration="none" x="173" y="244">automate)</text></g></g><g transform="translate(-38,-78) scale(1,1)"><path fill="none" stroke="#000000" d="M 289 199 L 330 158" stroke-miterlimit="10" stroke-dasharray="3"/></g><g transform="translate(-38,-78) scale(1,1)"><rect fill="#C0C0C0" stroke="none" x="727" y="343" width="139.0634765625" height="29" opacity="0.2"/></g><g transform="translate(-38,-78) scale(1,1)"><rect fill="#ffffff" stroke="none" x="720" y="336" width="139.0634765625" height="29"/></g><g transform="translate(-38,-78) scale(1,1)"><path fill="none" stroke="#000000" d="M 720 336 L 859.0634765625 336 L 859.0634765625 365 L 720 365 L 720 336 Z Z" stroke-miterlimit="10"/></g><g transform="translate(-38,-78) scale(1,1)"><rect fill="#ffffff" stroke="none" x="720" y="336" width="139.0634765625" height="29"/></g><g transform="translate(-38,-78) scale(1,1)"><path fill="none" stroke="#000000" d="M 720 336 L 859.0634765625 336 L 859.0634765625 365 L 720 365 L 720 336 Z Z" stroke-miterlimit="10"/></g><g transform="translate(-38,-78) scale(1,1)"><g><path fill="none" stroke="none"/><text fill="#000000" stroke="none" font-family="Arial" font-size="13px" font-style="normal" font-weight="bold" text-decoration="none" x="728.483154296875" y="355.5">Reverse Proxy Nginx</text></g></g><g transform="translate(-38,-78) scale(1,1)"><rect fill="#C0C0C0" stroke="none" x="903" y="223" width="126.0380859375" height="29" opacity="0.2"/></g><g transform="translate(-38,-78) scale(1,1)"><rect fill="#ffffff" stroke="none" x="896" y="216" width="126.0380859375" height="29"/></g><g transform="translate(-38,-78) scale(1,1)"><path fill="none" stroke="#000000" d="M 896 216 L 1022.0380859375 216 L 1022.0380859375 245 L 896 245 L 896 216 Z Z" stroke-miterlimit="10"/></g><g transform="translate(-38,-78) scale(1,1)"><rect fill="#ffffff" stroke="none" x="896" y="216" width="126.0380859375" height="29"/></g><g transform="translate(-38,-78) scale(1,1)"><path fill="none" stroke="#000000" d="M 896 216 L 1022.0380859375 216 L 1022.0380859375 245 L 896 245 L 896 216 Z Z" stroke-miterlimit="10"/></g><g transform="translate(-38,-78) scale(1,1)"><g><path fill="none" stroke="none"/><text fill="#000000" stroke="none" font-family="Arial" font-size="13px" font-style="normal" font-weight="bold" text-decoration="none" x="916.016845703125" y="235.5">Page statiques</text></g></g><g transform="translate(-38,-78) scale(1,1)"><path fill="none" stroke="#000000" d="M 927 463 L 809 366" stroke-miterlimit="10"/></g><g transform="translate(-38,-78) scale(1,1)"><path fill="none" stroke="#000000" d="M 834 414 L 865 439" stroke-miterlimit="10"/></g><g transform="translate(-38,-78) scale(1,1)"><path fill="#000000" stroke="none" d="M 845 417 L 834 414 L 839 424"/></g><g transform="translate(-38,-78) scale(1,1)"><g><path fill="none" stroke="none"/><text fill="#000000" stroke="none" font-family="Arial" font-size="13px" font-style="normal" font-weight="normal" text-decoration="none" x="716.44921875" y="464">6 : Requêtes toutes les minutes</text></g></g><g transform="translate(-38,-78) scale(1,1)"><path fill="#ffffff" stroke="none" d="M 616 400 L 701 400 L 711 410 L 711 449 L 616 449 L 616 400"/></g><g transform="translate(-38,-78) scale(1,1)"><path fill="none" stroke="#000000" d="M 616 400 L 701 400 L 711 410 L 711 449 L 616 449 L 616 400 L 616 400" stroke-miterlimit="10"/></g><g transform="translate(-38,-78) scale(1,1)"><path fill="none" stroke="#000000" d="M 701 400 L 701 410 L 711 410 L 701 400" stroke-miterlimit="10"/></g><g transform="translate(-38,-78) scale(1,1)"><g><path fill="none" stroke="none"/><text fill="#000000" stroke="none" font-family="Arial" font-size="13px" font-style="normal" font-weight="normal" text-decoration="none" x="621" y="418">Accès</text><text fill="#000000" stroke="none" font-family="Arial" font-size="13px" font-style="normal" font-weight="normal" text-decoration="none" x="621" y="431">utilisateur via</text><text fill="#000000" stroke="none" font-family="Arial" font-size="13px" font-style="normal" font-weight="normal" text-decoration="none" x="621" y="444">URL</text></g></g><g transform="translate(-38,-78) scale(1,1)"><path fill="none" stroke="#000000" d="M 707 399 L 762 366" stroke-miterlimit="10" stroke-dasharray="3"/></g><g transform="translate(-38,-78) scale(1,1)"><path fill="none" stroke="#000000" d="M 789 335 L 785 150" stroke-miterlimit="10"/></g><g transform="translate(-38,-78) scale(1,1)"><path fill="none" stroke="#000000" d="M 775 223 L 775 262" stroke-miterlimit="10"/></g><g transform="translate(-38,-78) scale(1,1)"><path fill="#000000" stroke="none" d="M 779 234 L 775 223 L 770 234"/></g><g transform="translate(-38,-78) scale(1,1)"><g><path fill="none" stroke="none"/><text fill="#000000" stroke="none" font-family="Arial" font-size="13px" font-style="normal" font-weight="normal" text-decoration="none" x="562.393310546875" y="281">7 : Redirection vers le serveur node</text></g></g><g transform="translate(-38,-78) scale(1,1)"><rect fill="#C0C0C0" stroke="none" x="903" y="471" width="99" height="29" opacity="0.2"/></g><g transform="translate(-38,-78) scale(1,1)"><rect fill="#ffffff" stroke="none" x="896" y="464" width="99" height="29"/></g><g transform="translate(-38,-78) scale(1,1)"><path fill="none" stroke="#000000" d="M 896 464 L 995 464 L 995 493 L 896 493 L 896 464 Z Z" stroke-miterlimit="10"/></g><g transform="translate(-38,-78) scale(1,1)"><rect fill="#ffffff" stroke="none" x="896" y="464" width="99" height="29"/></g><g transform="translate(-38,-78) scale(1,1)"><path fill="none" stroke="#000000" d="M 896 464 L 995 464 L 995 493 L 896 493 L 896 464 Z Z" stroke-miterlimit="10"/></g><g transform="translate(-38,-78) scale(1,1)"><g><path fill="none" stroke="none"/><text fill="#000000" stroke="none" font-family="Arial" font-size="13px" font-style="normal" font-weight="bold" text-decoration="none" x="911.905029296875" y="483.5">Front Client</text></g></g><g transform="translate(-38,-78) scale(1,1)"><path fill="none" stroke="#000000" d="M 810 335 L 936 246" stroke-miterlimit="10"/></g><g transform="translate(-38,-78) scale(1,1)"><path fill="none" stroke="#000000" d="M 883 270 L 851 292" stroke-miterlimit="10"/></g><g transform="translate(-38,-78) scale(1,1)"><path fill="#000000" stroke="none" d="M 876 280 L 883 270 L 871 272"/></g><g transform="translate(-38,-78) scale(1,1)"><g><path fill="none" stroke="none"/><text fill="#000000" stroke="none" font-family="Arial" font-size="13px" font-style="normal" font-weight="normal" text-decoration="none" x="874.7509765625" y="302.5">8 : Accès pages</text></g></g></g></svg>